<?xml version="1.0" encoding="utf-8"?>
<!-- Generator: Adobe Illustrator 18.1.1, SVG Export Plug-In . SVG Version: 6.00 Build 0)  -->
<svg version="1.1" xmlns="http://www.w3.org/2000/svg" xmlns:xlink="http://www.w3.org/1999/xlink" width="200" height="200" x="0px" y="0px"
	 viewBox="0 0 200 200" enable-background="new 0 0 200 200" xml:space="preserve">
<g id="wizard.stand">
	<polygon fill="#46605F" points="141.1,141.6 141.1,148.5 134,148.5 132,148.5 124.9,148.5 124.9,160.5 134,160.5 134,153
		146.2,153 146.2,150.8 146.2,148.5 146.2,141.6 	"/>
	<polygon fill="#46605F" points="78.3,147.7 62.1,147.7 62.1,141.6 55.9,141.6 55.9,153 61.2,153 62.1,153 66.2,153 66.2,160
		77.6,160 77.6,153 78.3,153 	"/>
	<polygon fill="#29B79C" points="141.1,148.5 141.1,141.6 152.5,141.6 152.5,134.7 148.1,134.7 148.1,130.1 147.7,130.1
		147.7,127.7 141.1,127.7 141.1,123.2 141.1,100.2 132,100.2 120.5,100.2 120.5,107.1 81.1,107.1 81.1,100.2 69.6,100.2 60.5,100.2
		60.5,123.2 60.5,127.7 53.5,127.7 53.5,134.7 49,134.7 49,141.6 60.5,141.6 60.5,148.5 76.6,148.5 76.6,139.3 69.6,139.3
		69.6,134.7 69.6,127.7 69.6,123.2 76.6,123.2 76.6,139.3 83.6,139.3 83.6,157.7 76.6,157.7 76.6,160 69.6,160 69.6,171.4
		51.2,171.4 51.2,185.2 69.6,185.2 69.6,192.2 131.9,192.2 131.9,185.4 152.5,185.4 152.5,171.4 131.9,171.4 131.9,160 124.9,160
		124.9,157.7 118.1,157.7 118.1,139.3 124.9,139.3 124.9,123.2 132,123.2 132,127.7 132,134.7 132,139.3 124.9,139.3 124.9,148.5
		"/>
	<polygon fill="#1A7057" points="143.4,56.6 143.4,42.6 134,42.6 134,29 127.1,29 127.1,19.6 134,19.6 134,8.2 115.7,8.2 115.7,15
		101.9,15 101.9,21.8 90.4,21.8 90.4,28.6 83.6,28.6 83.6,35.4 74.4,35.4 74.4,42.1 56,42.1 56,49.8 74.4,49.8 74.4,56.9 83.6,56.9
		90.4,56.9 90.9,56.9 101.9,56.9 101.9,56.6 108.8,56.6 108.8,63.4 157.3,63.4 157.3,56.6 	"/>
	<polygon fill="#AA8D6D" points="69,63.4 69,100.2 80.5,100.2 80.5,107.7 120.5,107.7 120.5,100.2 131.7,100.2 131.7,63.4 	"/>
	<g>
		<rect x="83.6" y="70.2" fill="#665438" width="6.8" height="16.2"/>
		<rect x="111.1" y="70.2" fill="#665438" width="6.8" height="16.2"/>
	</g>
	<rect x="138.7" y="100.2" fill="#444444" width="2.2" height="9.3"/>
	<g>
		<g>
			<rect x="134" y="8.2" fill="#444444" width="7" height="11.3"/>
			<rect x="127.1" y="19.6" fill="#444444" width="7" height="9.5"/>
			<rect x="131.8" y="29" fill="#444444" width="7" height="6.8"/>
			<rect x="157.3" y="56.6" fill="#444444" width="7" height="6.8"/>
			<rect x="74.4" y="56.6" fill="#444444" width="34.5" height="6.8"/>
			<rect x="56" y="49.8" fill="#444444" width="18.4" height="6.8"/>
			<rect x="49" y="42.1" fill="#444444" width="7" height="7.7"/>
			<rect x="56" y="35.4" fill="#444444" width="18.4" height="6.8"/>
			<rect x="74.4" y="28.6" fill="#444444" width="9.2" height="6.8"/>
			<rect x="83.6" y="21.8" fill="#444444" width="6.9" height="6.8"/>
			<rect x="90.4" y="15" fill="#444444" width="11.5" height="6.8"/>
			<rect x="101.9" y="8.2" fill="#444444" width="13.8" height="6.8"/>
			<rect x="115.7" y="1.5" fill="#444444" width="18.3" height="6.8"/>
			<rect x="108.8" y="63.4" fill="#444444" width="48.4" height="6.8"/>
			<polygon fill="#444444" points="150.3,49.8 150.3,42.6 143.4,42.6 143.4,56.6 150.3,56.6 157.3,56.6 157.3,49.8 			"/>
			<rect x="134" y="35.8" fill="#444444" width="9.2" height="6.8"/>
		</g>
		<path fill="#444444" d="M69.7,74.8v6.9v4.7v6.8h27.4v-6.8v-4.7h7.1v4.7v6.8h27.4v-6.8v-4.7v-6.9H69.7z M90.4,86.4H76.4v-4.7h13.9
			V86.4z M124.9,86.4H111v-4.7h13.9V86.4z"/>
		<rect x="127.2" y="93.2" fill="#444444" width="4.5" height="7"/>
		<rect x="69.7" y="93.2" fill="#444444" width="4.6" height="7"/>
		<g>
			<rect x="140.9" y="109.5" fill="#444444" width="6.9" height="20.6"/>
			<rect x="147.7" y="130.1" fill="#444444" width="7" height="6.9"/>
			<rect x="124.9" y="123.2" fill="#444444" width="7" height="16.1"/>
			<rect x="118.1" y="139.3" fill="#444444" width="6.9" height="20.6"/>
			<rect x="152.5" y="137" fill="#444444" width="9.2" height="7.1"/>
			<rect x="145.7" y="141.6" fill="#444444" width="6.9" height="13.8"/>
			<rect x="134" y="153" fill="#444444" width="11.6" height="7"/>
			<rect x="131.9" y="159.9" fill="#444444" width="6.8" height="11.5"/>
			<rect x="138.7" y="171.4" fill="#444444" width="13.8" height="7"/>
			<rect x="152.5" y="178.4" fill="#444444" width="6.7" height="7"/>
			<rect x="127.2" y="185.4" fill="#444444" width="25.3" height="6.7"/>
			<rect x="78.8" y="192.2" fill="#444444" width="48.4" height="7"/>
			<rect x="51.2" y="185.2" fill="#444444" width="27.6" height="7"/>
			<rect x="44.4" y="178.4" fill="#444444" width="6.8" height="6.8"/>
			<rect x="51.2" y="171.4" fill="#444444" width="11.5" height="7"/>
			<rect x="62.8" y="160" fill="#444444" width="6.8" height="11.4"/>
			<rect x="76.6" y="139.3" fill="#444444" width="7" height="20.6"/>
			<rect x="55.9" y="153" fill="#444444" width="11.5" height="7"/>
			<rect x="49" y="141.6" fill="#444444" width="6.9" height="11.4"/>
			<polygon fill="#444444" points="35.2,134.7 35.2,141.6 42,141.6 42,143.8 49,143.8 49,141.6 49,134.7 			"/>
			<rect x="46.7" y="127.7" fill="#444444" width="6.7" height="7"/>
			<rect x="53.5" y="109.4" fill="#444444" width="7" height="18.4"/>
			<rect x="60.5" y="100.2" fill="#444444" width="2.2" height="9.2"/>
			<rect x="69" y="123.1" fill="#444444" width="7.6" height="16.2"/>
		</g>
	</g>
	<g>
		<rect x="101.9" y="29" fill="#92F1EF" width="18.3" height="18.2"/>
		<rect x="108.8" y="35.8" fill="#E7DD55" width="20.6" height="18.3"/>
		<rect x="76.6" y="116.3" fill="#E7DD55" width="18.3" height="18.3"/>
		<rect x="92.5" y="150.8" fill="#92F1EF" width="18.3" height="18.3"/>
		<rect x="99.7" y="157.7" fill="#E7DD55" width="18.3" height="18.3"/>
	</g>
	<rect x="131.7" y="70.2" fill="#A05940" width="7" height="44"/>
	<polygon fill="#A05940" points="72,56.6 69.7,56.6 62.7,56.6 62.7,114.2 69.7,114.2 69.7,70.2 72,70.2 72,63.4 74.4,63.4
		74.4,56.6 	"/>
</g>
</svg>
