<?xml version="1.0" encoding="utf-8"?>
<!-- Generator: Adobe Illustrator 18.1.1, SVG Export Plug-In . SVG Version: 6.00 Build 0)  -->
<svg version="1.1" xmlns="http://www.w3.org/2000/svg" xmlns:xlink="http://www.w3.org/1999/xlink" width="200" height="200" x="0px" y="0px"
	 viewBox="0 0 200 200" enable-background="new 0 0 200 200" xml:space="preserve">
<g id="fighter.stand">
	<g>
		<g>
			<polygon fill="#EFDCCA" points="128.8,47.2 121.2,47.2 121.2,40 79.3,40 79.3,47.2 71.5,47.2 71.5,64.7 64.2,64.7 64.2,84.9
				71.5,84.9 71.5,92.2 79,92.2 79,100.1 80.3,100.1 80.3,100 121.2,100 121.2,92.2 128.8,92.2 128.8,84.9 136.2,84.9 136.2,64.7
				128.8,64.7 			"/>
			<rect x="138.5" y="119.4" fill="#EFDCCA" width="17.5" height="9.8"/>
			<rect x="56.8" y="144.4" fill="#EFDCCA" width="22.2" height="12.5"/>
		</g>
		<g>
			<rect x="111.7" y="59.7" fill="#73D8B1" width="7.3" height="17.5"/>
			<rect x="81.5" y="59.7" fill="#73D8B1" width="7.7" height="17.5"/>
		</g>
		<g>
			<rect x="128.8" y="92.2" fill="#444444" width="7.3" height="7.8"/>
			<polygon fill="#444444" points="143.7,112.2 143.7,100 136.2,100 136.2,119.4 140.8,119.4 143.7,119.4 156,119.4 156,112.2
				"/>
			<rect x="156" y="119.4" fill="#444444" width="7.7" height="9.8"/>
			<rect x="131.7" y="119.4" fill="#444444" width="6.8" height="9.8"/>
			<rect x="119" y="129.2" fill="#444444" width="14.5" height="7.5"/>
			<rect x="119" y="119.4" fill="#444444" width="7.2" height="59.7"/>
			<rect x="124" y="176.9" fill="#444444" width="7.7" height="7"/>
			<rect x="131.7" y="183.9" fill="#444444" width="6.8" height="7.8"/>
			<rect x="104.2" y="191.7" fill="#444444" width="27.5" height="7.3"/>
			<rect x="94.2" y="164.4" fill="#444444" width="10" height="27.3"/>
			<rect x="66.8" y="191.7" fill="#444444" width="27.3" height="7.3"/>
			<rect x="64.2" y="92.2" fill="#444444" width="7.3" height="7.8"/>
			<rect x="56.8" y="100" fill="#444444" width="7.3" height="7"/>
			<rect x="49.5" y="107" fill="#444444" width="7.3" height="49.8"/>
			<rect x="71.5" y="119.4" fill="#444444" width="7.5" height="25"/>
			<rect x="56.8" y="156.9" fill="#444444" width="22.2" height="7.5"/>
			<rect x="71.5" y="162.7" fill="#444444" width="7.5" height="16.3"/>
			<rect x="66.8" y="176.9" fill="#444444" width="7.2" height="7"/>
			<rect x="59.3" y="183.9" fill="#444444" width="7.5" height="7.8"/>
		</g>
		<polygon fill="#25A0C1" points="79,100 79,92.2 71.5,92.2 71.5,100 64.2,100 64.2,107 56.8,107 56.8,129.2 71.5,129.2 71.5,119.4
			79,119.4 79,144.4 89.2,144.4 89.2,151.9 109,151.9 109,144.4 119,144.4 119,119.4 126.2,119.4 126.2,129.2 131.7,129.2
			131.7,119.4 136.2,119.4 136.2,100 		"/>
		<g>
			<polygon fill="#DFCDE0" points="128.8,100 128.8,92.2 121.2,92.2 121.2,100 116.5,100 116.5,107 109,107 109,114.4 101.5,114.4
				101.5,122 94.2,122 94.2,129.2 79,129.2 79,136.7 79,144.4 86.5,144.4 86.5,136.7 99.2,136.7 99.2,129.2 108.9,129.2 108.9,122
				116.3,122 116.3,114.4 123.7,114.4 123.7,107 128.8,107 136.2,107 136.2,100 			"/>
			<rect x="56.8" y="129.2" fill="#DFCDE0" width="14.7" height="15.2"/>
		</g>
		<g>
			<rect x="146.1" y="104.7" fill="#848483" width="7.4" height="7.5"/>
			<rect x="133.5" y="129.2" fill="#848483" width="32.7" height="7.6"/>
		</g>
		<polygon fill="#ECC996" points="141.2,179 141.2,186.7 146.1,186.7 146.1,191.7 153.5,191.7 153.5,186.7 159.1,186.7 159.1,179
			"/>
		<polygon fill="#5F4E60" points="124,183.9 124,179 119.3,179 119.3,144.4 104.2,144.4 104.2,151.9 94.2,151.9 94.2,144.4
			79,144.4 79,179 74,179 74,183.9 66.8,183.9 66.8,191.7 74,191.7 79,191.7 81.2,191.7 94.2,191.7 94.2,164.4 104.2,164.4
			104.2,191.7 119,191.7 119.3,191.7 121.5,191.7 124,191.7 131.7,191.7 131.7,183.9 		"/>
		<polygon fill="#FCD200" points="141.2,136.7 141.2,179 141.2,181.4 146.1,181.4 146.1,179 153.5,179 153.5,181.4 159.1,181.4
			159.1,179 159.1,136.7 		"/>
		<rect x="146.1" y="191.7" fill="#444444" width="7.4" height="7.3"/>
		<g>
			<rect x="56.8" y="12.7" fill="#D6D238" width="7.3" height="19.8"/>
			<rect x="79.3" y="10.4" fill="#D6D238" width="7.3" height="7.3"/>
			<rect x="64.2" y="47.2" fill="#D6D238" width="7.3" height="17.5"/>
			<polygon fill="#D6D238" points="121.3,24.9 79.3,24.9 79.3,15 71.5,15 71.5,32.5 64.2,32.5 64.2,40 71.5,40 71.5,47.2 79.3,47.2
				79.3,40 121,40 121,47.2 121.3,47.2 124.3,47.2 128.8,47.2 128.8,40 128.8,32.5 121.3,32.5 			"/>
			<rect x="128.8" y="47.2" fill="#D6D238" width="7.3" height="17.5"/>
		</g>
	</g>
</g>
</svg>
