<?xml version="1.0" encoding="UTF-8" standalone="no"?>
<svg width="1000px" height="1000px" viewBox="0 0 1000 1000" version="1.1" xmlns="http://www.w3.org/2000/svg" xmlns:xlink="http://www.w3.org/1999/xlink">
  <rect x="0" y="0" w="1000" h="1000" fill="#CDCDCD">
  </rect>
  <g fill="#FFFFFF">
    <circle cx="718.4239537455142" cy="146.416392410174" r="2"></circle>
    <circle cx="676.696755959577" cy="188.7120609962511" r="2"></circle>
    <circle cx="730.0858492367754" cy="191.46240925591115" r="2"></circle>
    <circle cx="658.4654249910635" cy="145.30122012350756" r="2"></circle>
    <circle cx="648.9530156535633" cy="202.19913678667592" r="2"></circle>
    <circle cx="639.9851992869956" cy="108.55307038613259" r="2"></circle>
    <circle cx="733.2971572507275" cy="230.6983078316946" r="2"></circle>
    <circle cx="762.2416223106117" cy="247.74010651680786" r="2"></circle>
    <circle cx="758.3631690191444" cy="283.6570277529901" r="2"></circle>
    <circle cx="769.1858267590742" cy="140.3127255812373" r="2"></circle>
    <circle cx="768.3778739559291" cy="193.66568264397688" r="2"></circle>
    <circle cx="825.6769710034959" cy="159.1319542683277" r="2"></circle>
    <circle cx="661.6153346032322" cy="77.82184688628554" r="2"></circle>
    <circle cx="690.7710579721922" cy="95.91445536809755" r="2"></circle>
    <circle cx="815.1011131089798" cy="188.60595443835788" r="2"></circle>
    <circle cx="746.86511630626" cy="96.70133943041473" r="2"></circle>
    <circle cx="720.2053615238643" cy="281.68904086854724" r="2"></circle>
    <circle cx="707.6671457148317" cy="249.2586254525523" r="2"></circle>
    <circle cx="718.6145476517464" cy="113.40366350271594" r="2"></circle>
    <circle cx="664.027583429381" cy="251.61239446774132" r="2"></circle>
    <circle cx="786.3878740479281" cy="226.14858851854962" r="2"></circle>
    <circle cx="847.3998619433663" cy="117.6364395721882" r="2"></circle>
    <circle cx="743.8750151822696" cy="162.7288638203313" r="2"></circle>
    <circle cx="604.1466218895395" cy="79.68732398931789" r="2"></circle>
    <circle cx="666.661513531727" cy="289.3985804535196" r="2"></circle>
    <circle cx="710.4256021713476" cy="66.8774659874529" r="2"></circle>
    <circle cx="617.9180015867499" cy="197.89877720273378" r="2"></circle>
    <circle cx="573.8766956226771" cy="51.46561607563304" r="2"></circle>
    <circle cx="791.8730448704171" cy="164.03475149359437" r="2"></circle>
    <circle cx="804.5286370371947" cy="127.3187373423641" r="2"></circle>
    <circle cx="688.56318351269" cy="127.67853246274807" r="2"></circle>
    <circle cx="584.7481930123447" cy="227.60149573900932" r="2"></circle>
    <circle cx="733.9234485227224" cy="338.43901023922086" r="2"></circle>
    <circle cx="703.8867014577796" cy="206.8247265311385" r="2"></circle>
    <circle cx="878.1634558077395" cy="74.06926880729176" r="2"></circle>
    <circle cx="703.2104247430748" cy="174.0451155986098" r="2"></circle>
    <circle cx="591.3261712338797" cy="20.5034903759471" r="2"></circle>
    <circle cx="631.9825038977788" cy="164.88017346624483" r="2"></circle>
    <circle cx="674.4315650925391" cy="219.5093197750716" r="2"></circle>
    <circle cx="632.7295355628086" cy="294.7775545298339" r="2"></circle>
    <circle cx="743.9300060786218" cy="64.81018944088174" r="2"></circle>
    <circle cx="817.6009194130011" cy="247.33456615826924" r="2"></circle>
    <circle cx="642.5120868082338" cy="46.462685590164156" r="2"></circle>
    <circle cx="570.6622907282962" cy="185.32045200633905" r="2"></circle>
    <circle cx="886.1515041697797" cy="34.78803077722175" r="2"></circle>
    <circle cx="620.1410728272842" cy="227.85741760645246" r="2"></circle>
    <circle cx="613.0988301711283" cy="141.5199433928446" r="2"></circle>
    <circle cx="526.895824287893" cy="184.17091257844064" r="2"></circle>
    <circle cx="765.1733253255145" cy="38.939893643402264" r="2"></circle>
    <circle cx="581.9459766840871" cy="259.57086583930953" r="2"></circle>
    <circle cx="778.4233139470683" cy="82.3555689869138" r="2"></circle>
    <circle cx="679.2181149047217" cy="52.151572872439814" r="2"></circle>
    <circle cx="805.8941428315118" cy="95.01970703364887" r="2"></circle>
    <circle cx="916.1377508842224" cy="49.76696146198472" r="2"></circle>
    <circle cx="590.9472387573935" cy="315.47110373327155" r="2"></circle>
    <circle cx="789.006198337114" cy="278.8878592267439" r="2"></circle>
    <circle cx="864.9623345918742" cy="169.51696446240004" r="2"></circle>
    <circle cx="618.3624507891498" cy="266.2414265384967" r="2"></circle>
    <circle cx="585.66011284501" cy="126.30233026655026" r="2"></circle>
    <circle cx="554.1163212315188" cy="152.05126282533925" r="2"></circle>
    <circle cx="625.7820667110869" cy="324.6889064717988" r="2"></circle>
    <circle cx="545.5075554759675" cy="36.56157576658544" r="2"></circle>
    <circle cx="850.4983390214903" cy="60.53616495521139" r="2"></circle>
    <circle cx="669.6062643829804" cy="22.585705341401273" r="2"></circle>
    <circle cx="829.8498454065528" cy="218.38150534286555" r="2"></circle>
    <circle cx="585.1394729934269" cy="157.9043707028396" r="2"></circle>
    <circle cx="494.8663139656634" cy="154.2412567230411" r="2"></circle>
    <circle cx="570.6642942962293" cy="99.97954813617591" r="2"></circle>
    <circle cx="538.5825508547374" cy="230.98284392286018" r="2"></circle>
    <circle cx="665.9691482770711" cy="330.536204147298" r="2"></circle>
    <circle cx="533.6984342103347" cy="104.55630684171138" r="2"></circle>
    <circle cx="628.9344852633163" cy="4.369815097328445" r="2"></circle>
    <circle cx="701.647495217199" cy="307.8148513549027" r="2"></circle>
    <circle cx="528.0539443734781" cy="136.23392498507602" r="2"></circle>
    <circle cx="554.7520273923529" cy="0.6637847109793675" r="2"></circle>
    <circle cx="878.5069696355092" cy="136.4660386989409" r="2"></circle>
    <circle cx="732.8758150234293" cy="377.0979732172831" r="2"></circle>
    <circle cx="523.3800728945595" cy="75.94228747882462" r="2"></circle>
    <circle cx="497.98376449238026" cy="115.6859048517092" r="2"></circle>
    <circle cx="626.7785911033999" cy="378.9245698242619" r="2"></circle>
    <circle cx="863.984388275582" cy="201.87587482903746" r="2"></circle>
    <circle cx="761.7019152256629" cy="395.5807643937889" r="2"></circle>
    <circle cx="919.2223634959688" cy="149.01871889984898" r="2"></circle>
    <circle cx="778.0460228071332" cy="349.0346803341569" r="2"></circle>
    <circle cx="493.9171085935078" cy="68.82847993448497" r="2"></circle>
    <circle cx="598.5197874611997" cy="403.44530348486796" r="2"></circle>
    <circle cx="476.67176848017266" cy="94.13031319149508" r="2"></circle>
    <circle cx="835.8131440595585" cy="6.759503016185054" r="2"></circle>
    <circle cx="610.8936195993385" cy="47.45470257731729" r="2"></circle>
    <circle cx="448.2890694153591" cy="167.51556418112688" r="2"></circle>
    <circle cx="712.3888499667215" cy="16.968148034831337" r="2"></circle>
    <circle cx="742.9344701632982" cy="10.706437894907562" r="2"></circle>
    <circle cx="807.0551097360332" cy="37.9779236531905" r="2"></circle>
    <circle cx="772.9384830982833" cy="6.337378341288314" r="2"></circle>
    <circle cx="873.9447144155538" cy="1.4250508050776416" r="2"></circle>
    <circle cx="523.5602522144579" cy="1.4901738592007985" r="2"></circle>
    <circle cx="627.1196695703402" cy="433.46524448938925" r="2"></circle>
    <circle cx="696.6411408603874" cy="412.67735598592316" r="2"></circle>
    <circle cx="554.3251879329878" cy="74.6716939698403" r="2"></circle>
    <circle cx="924.9163618846866" cy="106.22587493679931" r="2"></circle>
    <circle cx="816.9970765822005" cy="66.60691459930021" r="2"></circle>
    <circle cx="825.2296156591262" cy="289.1493004957747" r="2"></circle>
    <circle cx="641.8564497856763" cy="352.1457736884931" r="2"></circle>
    <circle cx="668.3030157174363" cy="380.1438122735052" r="2"></circle>
    <circle cx="689.8703597367129" cy="468.5287144157214" r="2"></circle>
    <circle cx="865.3578123224073" cy="273.5904433326451" r="2"></circle>
    <circle cx="504.7008475554957" cy="26.053779541375896" r="2"></circle>
    <circle cx="477.11405387117514" cy="39.567473598852835" r="2"></circle>
    <circle cx="586.9055112665999" cy="370.56628095720043" r="2"></circle>
    <circle cx="755.9234344567218" cy="313.58231135773417" r="2"></circle>
    <circle cx="544.0630956726507" cy="269.0715601130904" r="2"></circle>
    <circle cx="809.8636435859677" cy="332.9821142054673" r="2"></circle>
    <circle cx="512.064268395903" cy="253.59010561847856" r="2"></circle>
    <circle cx="498.73145766652823" cy="301.43926888238786" r="2"></circle>
    <circle cx="946.5967410832877" cy="63.66649214043474" r="2"></circle>
    <circle cx="456.527997908201" cy="9.619901397258474" r="2"></circle>
    <circle cx="727.6886822055392" cy="411.9876815451713" r="2"></circle>
    <circle cx="697.1799987975301" cy="342.9789718624973" r="2"></circle>
    <circle cx="896.7818944086945" cy="170.47550683076383" r="2"></circle>
    <circle cx="884.4679294614766" cy="106.1815420153898" r="2"></circle>
    <circle cx="929.3733530631912" cy="20.278241391890163" r="2"></circle>
    <circle cx="699.0255384174997" cy="377.89309295107523" r="2"></circle>
    <circle cx="600.4829821594186" cy="464.80103752542783" r="2"></circle>
    <circle cx="786.1148452224261" cy="309.14029590223277" r="2"></circle>
    <circle cx="447.33303489888146" cy="73.41652433910818" r="2"></circle>
    <circle cx="982.2874648285083" cy="72.64366066613559" r="2"></circle>
    <circle cx="838.2143328991657" cy="88.26739106196389" r="2"></circle>
    <circle cx="932.8143127301462" cy="181.63648005533466" r="2"></circle>
    <circle cx="643.9021152301626" cy="406.10358102311034" r="2"></circle>
    <circle cx="899.6080245752316" cy="218.12838048270626" r="2"></circle>
    <circle cx="572.1388543086463" cy="343.65408472586546" r="2"></circle>
    <circle cx="468.29293258247105" cy="132.9213369447774" r="2"></circle>
    <circle cx="966.870185779979" cy="21.4206881751459" r="2"></circle>
    <circle cx="539.7531690150398" cy="299.8771658279151" r="2"></circle>
    <circle cx="611.5271127544904" cy="352.40971169804857" r="2"></circle>
    <circle cx="434.01552748822695" cy="36.979581153410834" r="2"></circle>
    <circle cx="992.4550572508714" cy="41.01023223466329" r="2"></circle>
    <circle cx="472.28794047011263" cy="189.9173175713514" r="2"></circle>
    <circle cx="908.2731133482722" cy="81.17319260016028" r="2"></circle>
    <circle cx="675.7156369593282" cy="437.5774655016925" r="2"></circle>
    <circle cx="899.5205502846748" cy="267.55555371086285" r="2"></circle>
    <circle cx="874.0844370938468" cy="234.26597196576205" r="2"></circle>
    <circle cx="485.7950769818192" cy="0.13704250502749815" r="2"></circle>
    <circle cx="955.4650258703111" cy="94.47459431423144" r="2"></circle>
    <circle cx="488.0685222498049" cy="225.10009877364195" r="2"></circle>
    <circle cx="849.5032700102965" cy="359.91065704308005" r="2"></circle>
    <circle cx="400.1627241227991" cy="3.7259002239774714" r="2"></circle>
    <circle cx="443.51684564938023" cy="262.9771427940386" r="2"></circle>
    <circle cx="805.0054133740232" cy="7.607667535492973" r="2"></circle>
    <circle cx="447.12448323655167" cy="106.35556051399833" r="2"></circle>
    <circle cx="573.7949546407358" cy="290.666672923941" r="2"></circle>
    <circle cx="412.39571769489515" cy="61.21746946129305" r="2"></circle>
    <circle cx="432.64531083499173" cy="209.6327032335797" r="2"></circle>
    <circle cx="855.9686214371341" cy="306.9291799318379" r="2"></circle>
    <circle cx="948.3463196123968" cy="125.40346020423884" r="2"></circle>
    <circle cx="964.9742882850549" cy="172.8641099871208" r="2"></circle>
    <circle cx="955.402121264035" cy="205.37371954895877" r="2"></circle>
    <circle cx="555.0827338524343" cy="372.0987318628935" r="2"></circle>
    <circle cx="984.1659070002559" cy="115.38997748517471" r="2"></circle>
    <circle cx="634.0098310767545" cy="482.73027230680316" r="2"></circle>
    <circle cx="419.94526942782056" cy="179.7489952484094" r="2"></circle>
    <circle cx="397.14053000900867" cy="210.7344329652363" r="2"></circle>
    <circle cx="972.1053281030695" cy="245.8946499159184" r="2"></circle>
    <circle cx="994.6595050793827" cy="155.22706132188776" r="2"></circle>
    <circle cx="930.6773438796226" cy="231.77812501514092" r="2"></circle>
    <circle cx="822.7716558272011" cy="390.2227670629187" r="2"></circle>
    <circle cx="486.09181309550485" cy="272.97478006552666" r="2"></circle>
    <circle cx="358.75764180500323" cy="57.53354826525971" r="2"></circle>
    <circle cx="350.98478001003093" cy="207.52021521708457" r="2"></circle>
    <circle cx="607.1641563883237" cy="521.7907634404854" r="2"></circle>
    <circle cx="791.5271437475486" cy="384.5501099632118" r="2"></circle>
    <circle cx="512.9567241408246" cy="346.5027595784351" r="2"></circle>
    <circle cx="859.0433841409377" cy="393.0884232472949" r="2"></circle>
    <circle cx="565.633877210631" cy="400.838284574656" r="2"></circle>
    <circle cx="902.9000817142659" cy="307.67658491600685" r="2"></circle>
    <circle cx="998.4661650898727" cy="205.5010703976164" r="2"></circle>
    <circle cx="544.4414584462822" cy="425.566187274011" r="2"></circle>
    <circle cx="386.25683496123554" cy="242.3141473379145" r="2"></circle>
    <circle cx="855.2405438052184" cy="30.058282738822463" r="2"></circle>
    <circle cx="743.8336035285079" cy="445.32921824437904" r="2"></circle>
    <circle cx="417.1874885923621" cy="299.78290001895476" r="2"></circle>
    <circle cx="953.9580016885801" cy="293.67297358458825" r="2"></circle>
    <circle cx="544.2218831208666" cy="332.40152809190295" r="2"></circle>
    <circle cx="375.85027387652065" cy="28.641363469614042" r="2"></circle>
    <circle cx="894.7865388069747" cy="339.3503925340922" r="2"></circle>
    <circle cx="656.8607885282424" cy="461.9194006333975" r="2"></circle>
    <circle cx="931.0694427777851" cy="265.19961693966025" r="2"></circle>
    <circle cx="405.4755030440549" cy="138.87413442241416" r="2"></circle>
    <circle cx="802.4233417439907" cy="423.9471573306702" r="2"></circle>
    <circle cx="319.5684978602046" cy="44.14082415813271" r="2"></circle>
    <circle cx="987.718900964016" cy="277.0752357242241" r="2"></circle>
    <circle cx="676.8975120435624" cy="510.1625570388878" r="2"></circle>
    <circle cx="484.817662465743" cy="331.0149116239481" r="2"></circle>
    <circle cx="793.3485982117412" cy="477.67246617644213" r="2"></circle>
    <circle cx="710.747268099896" cy="439.42593817693626" r="2"></circle>
    <circle cx="833.6395361360492" cy="423.9579528754641" r="2"></circle>
    <circle cx="905.8047860886729" cy="0.28533412753080967" r="2"></circle>
    <circle cx="822.7060918911423" cy="454.213828162308" r="2"></circle>
    <circle cx="638.491744099139" cy="514.4747751646368" r="2"></circle>
    <circle cx="414.4198733254325" cy="107.54964458015206" r="2"></circle>
    <circle cx="612.8692336761488" cy="557.9153857821127" r="2"></circle>
    <circle cx="998.7883787160093" cy="6.59423721791361" r="2"></circle>
    <circle cx="359.1138566939065" cy="263.7613517941621" r="2"></circle>
    <circle cx="366.6726357463564" cy="127.56957884338362" r="2"></circle>
    <circle cx="574.2866749370557" cy="433.5782368826546" r="2"></circle>
    <circle cx="507.6228327841984" cy="377.222328852272" r="2"></circle>
    <circle cx="333.4285008685375" cy="14.85109591167879" r="2"></circle>
    <circle cx="380.79221599476807" cy="177.8331431602396" r="2"></circle>
    <circle cx="370.2204560976118" cy="90.26969720065397" r="2"></circle>
    <circle cx="415.5376821376523" cy="235.25015952588697" r="2"></circle>
    <circle cx="340.0753842335382" cy="158.0382945698674" r="2"></circle>
    <circle cx="912.545627541496" cy="400.8752021643361" r="2"></circle>
    <circle cx="559.6709411253057" cy="546.5149336842412" r="2"></circle>
    <circle cx="719.8339258655208" cy="471.4729039302941" r="2"></circle>
    <circle cx="478.141416401057" cy="383.5389500511113" r="2"></circle>
    <circle cx="325.556359998232" cy="231.33539272712417" r="2"></circle>
    <circle cx="863.6078803601265" cy="433.83022034704686" r="2"></circle>
    <circle cx="406.1485365642583" cy="267.5822969054442" r="2"></circle>
    <circle cx="468.80487244723895" cy="298.24779464857875" r="2"></circle>
    <circle cx="457.20968334129174" cy="234.569350742642" r="2"></circle>
    <circle cx="438.16548584736" cy="138.474939560593" r="2"></circle>
    <circle cx="446.9000878671308" cy="347.3323381568553" r="2"></circle>
    <circle cx="935.5933031715596" cy="323.9783911570488" r="2"></circle>
    <circle cx="545.7910101866372" cy="457.94139842773666" r="2"></circle>
    <circle cx="575.1129142001936" cy="482.75070271805293" r="2"></circle>
    <circle cx="835.1079351764171" cy="482.0621839121267" r="2"></circle>
    <circle cx="443.14190664893465" cy="315.50727199093893" r="2"></circle>
    <circle cx="361.15412555860973" cy="2.169383104149679" r="2"></circle>
    <circle cx="398.90198604309535" cy="331.9664245167225" r="2"></circle>
    <circle cx="644.5224908451864" cy="564.7013896460317" r="2"></circle>
    <circle cx="418.76586360431963" cy="362.42673530447433" r="2"></circle>
    <circle cx="514.0237424584143" cy="428.7621357883696" r="2"></circle>
    <circle cx="373.05784321053096" cy="293.17643964976673" r="2"></circle>
    <circle cx="728.6057195289707" cy="524.0480127185433" r="2"></circle>
    <circle cx="880.517572064755" cy="367.8598389967417" r="2"></circle>
    <circle cx="339.0990631224629" cy="322.44883697313225" r="2"></circle>
    <circle cx="354.386641966851" cy="371.8645940164588" r="2"></circle>
    <circle cx="463.9983560582411" cy="432.4860462012458" r="2"></circle>
    <circle cx="686.3980208997043" cy="548.4940537574274" r="2"></circle>
    <circle cx="535.8020524771824" cy="499.4481876875969" r="2"></circle>
    <circle cx="413.5814620540113" cy="411.499368667869" r="2"></circle>
    <circle cx="705.818032472987" cy="501.8709086671253" r="2"></circle>
    <circle cx="317.4517904945458" cy="265.06759264311347" r="2"></circle>
    <circle cx="287.88804354172476" cy="47.9885057626174" r="2"></circle>
    <circle cx="311.3996756829429" cy="185.688739233158" r="2"></circle>
    <circle cx="511.9484331140321" cy="461.7281251197743" r="2"></circle>
    <circle cx="448.01244843019606" cy="390.0083336310557" r="2"></circle>
    <circle cx="658.2485136119311" cy="537.7155714626043" r="2"></circle>
    <circle cx="384.9402792858941" cy="382.2425713040017" r="2"></circle>
    <circle cx="961.262342832927" cy="404.94886946553027" r="2"></circle>
    <circle cx="762.1876615731492" cy="493.4940977837027" r="2"></circle>
    <circle cx="772.053237670429" cy="426.455464971023" r="2"></circle>
    <circle cx="363.1100303376056" cy="340.6126977866055" r="2"></circle>
    <circle cx="535.3272990839205" cy="396.79045156927987" r="2"></circle>
    <circle cx="767.7340756807228" cy="568.4356638773588" r="2"></circle>
    <circle cx="577.615548058754" cy="516.3318410939233" r="2"></circle>
    <circle cx="280.21925342231845" cy="160.47402114310728" r="2"></circle>
    <circle cx="313.8097628972847" cy="302.30954894517106" r="2"></circle>
    <circle cx="918.9355277238317" cy="360.1733185312688" r="2"></circle>
    <circle cx="894.8461635183122" cy="432.6481307210713" r="2"></circle>
    <circle cx="948.9674861082345" cy="356.9639963494507" r="2"></circle>
    <circle cx="526.003534591989" cy="545.0152792828876" r="2"></circle>
    <circle cx="587.6781432019725" cy="608.7965673343597" r="2"></circle>
    <circle cx="486.3924131532443" cy="412.5067515917142" r="2"></circle>
    <circle cx="645.8054180825894" cy="599.5835226850575" r="2"></circle>
    <circle cx="979.5573087436078" cy="347.4233285506763" r="2"></circle>
    <circle cx="341.16565973493135" cy="97.86602875677364" r="2"></circle>
    <circle cx="677.3401729238866" cy="589.4262642860409" r="2"></circle>
    <circle cx="551.9612263257158" cy="652.0377372070458" r="2"></circle>
    <circle cx="310.80775383844815" cy="84.20103974625712" r="2"></circle>
    <circle cx="319.7873980223908" cy="125.79406735525733" r="2"></circle>
    <circle cx="541.7289922380604" cy="582.2332221538436" r="2"></circle>
    <circle cx="482.1122137169976" cy="466.90893643363734" r="2"></circle>
    <circle cx="505.355071190173" cy="496.51994192505225" r="2"></circle>
    <circle cx="698.7647876854346" cy="618.075453945162" r="2"></circle>
    <circle cx="897.818360611054" cy="482.7842742926642" r="2"></circle>
    <circle cx="463.0132741190761" cy="494.76535256127215" r="2"></circle>
    <circle cx="880.4259186508251" cy="508.67456674097457" r="2"></circle>
    <circle cx="301.41916264579305" cy="2.3176829873453304" r="2"></circle>
    <circle cx="993.9899962101528" cy="388.6091604697931" r="2"></circle>
    <circle cx="345.31955979241474" cy="407.2639751877527" r="2"></circle>
    <circle cx="863.7892433344498" cy="466.4445665889984" r="2"></circle>
    <circle cx="980.372512568191" cy="311.24486845139" r="2"></circle>
    <circle cx="579.4650381173221" cy="576.7450045552155" r="2"></circle>
    <circle cx="342.4792245253133" cy="289.7338357988261" r="2"></circle>
    <circle cx="308.7243273579216" cy="390.9392415985441" r="2"></circle>
    <circle cx="732.9877158804069" cy="560.2018952990304" r="2"></circle>
    <circle cx="369.1502510714492" cy="427.39027206327535" r="2"></circle>
    <circle cx="961.8382993477753" cy="443.04665306854065" r="2"></circle>
    <circle cx="275.2190273495601" cy="19.319859272448312" r="2"></circle>
    <circle cx="494.52439075093224" cy="650.4180500946765" r="2"></circle>
    <circle cx="283.0683023417417" cy="100.82518456699509" r="2"></circle>
    <circle cx="241.38480781894626" cy="62.0334588800067" r="2"></circle>
    <circle cx="254.1041358293445" cy="89.83262135991772" r="2"></circle>
    <circle cx="320.2327553195938" cy="452.79504114336106" r="2"></circle>
    <circle cx="447.8366334640345" cy="548.3310858932717" r="2"></circle>
    <circle cx="287.86194199470015" cy="131.1589390469975" r="2"></circle>
    <circle cx="285.1085648931177" cy="256.66267977195645" r="2"></circle>
    <circle cx="988.4234640282043" cy="421.76399791567036" r="2"></circle>
    <circle cx="787.1821832367093" cy="514.0656761698448" r="2"></circle>
    <circle cx="256.01972698548735" cy="132.52455286910038" r="2"></circle>
    <circle cx="616.3766317592019" cy="623.679883675837" r="2"></circle>
    <circle cx="663.5356047158255" cy="638.2698322773573" r="2"></circle>
    <circle cx="586.7490140267769" cy="647.92259526439" r="2"></circle>
    <circle cx="931.0473245280784" cy="438.5027510430276" r="2"></circle>
    <circle cx="285.5042452295357" cy="205.77119199537628" r="2"></circle>
    <circle cx="491.1078423953511" cy="538.4531128314425" r="2"></circle>
    <circle cx="240.4147256456777" cy="25.229497289936972" r="2"></circle>
    <circle cx="220.16658950529143" cy="107.06080200323923" r="2"></circle>
    <circle cx="437.81807182264674" cy="459.5201344256547" r="2"></circle>
    <circle cx="709.7280743009967" cy="579.4059910866174" r="2"></circle>
    <circle cx="472.2063157325556" cy="568.6581211239661" r="2"></circle>
    <circle cx="731.3484986161468" cy="606.9867008085045" r="2"></circle>
    <circle cx="432.0353708330271" cy="494.051390922526" r="2"></circle>
    <circle cx="210.52111170781725" cy="77.2984340882782" r="2"></circle>
    <circle cx="757.9451113704248" cy="537.648610343364" r="2"></circle>
    <circle cx="250.6882993491066" cy="204.04697869196607" r="2"></circle>
    <circle cx="937.8554949447554" cy="469.5752258210389" r="2"></circle>
    <circle cx="202.98052336386235" cy="11.802508306585361" r="2"></circle>
    <circle cx="253.2916486983977" cy="174.01362337817648" r="2"></circle>
    <circle cx="208.38471055332784" cy="231.76283063886137" r="2"></circle>
    <circle cx="438.6093262115033" cy="654.6392680470188" r="2"></circle>
    <circle cx="558.3835838632352" cy="620.8747183082602" r="2"></circle>
    <circle cx="775.6981834922336" cy="621.5972209452083" r="2"></circle>
    <circle cx="837.3849253361025" cy="514.4798314152014" r="2"></circle>
    <circle cx="403.0075461750993" cy="459.66986989972634" r="2"></circle>
    <circle cx="794.0275493816881" cy="544.2227094705017" r="2"></circle>
    <circle cx="905.4308344303988" cy="529.8853128355531" r="2"></circle>
    <circle cx="231.97733185944554" cy="151.57640444833396" r="2"></circle>
    <circle cx="208.18414587813288" cy="184.813997911254" r="2"></circle>
    <circle cx="229.28667659306177" cy="279.11508728379476" r="2"></circle>
    <circle cx="399.182254505093" cy="699.6373384967544" r="2"></circle>
    <circle cx="349.79549485542725" cy="720.4458109669687" r="2"></circle>
    <circle cx="353.64434137087414" cy="457.04264828891024" r="2"></circle>
    <circle cx="319.4257518812506" cy="361.9816898140814" r="2"></circle>
    <circle cx="827.0777936661681" cy="561.0676219903758" r="2"></circle>
    <circle cx="404.60700156725596" cy="634.340804726203" r="2"></circle>
    <circle cx="856.5667352660249" cy="540.847123518658" r="2"></circle>
    <circle cx="393.37178277657296" cy="533.6294245645792" r="2"></circle>
    <circle cx="268.0768027672805" cy="341.3388926368526" r="2"></circle>
    <circle cx="922.3863797350722" cy="503.3814100545287" r="2"></circle>
    <circle cx="376.8213221186114" cy="498.8201738520528" r="2"></circle>
    <circle cx="892.8835251631499" cy="557.2213012331937" r="2"></circle>
    <circle cx="513.0278687804802" cy="594.20297920568" r="2"></circle>
    <circle cx="547.0250848165347" cy="699.7587250777162" r="2"></circle>
    <circle cx="190.41745766527552" cy="123.97857081099403" r="2"></circle>
    <circle cx="403.32486818588336" cy="562.485633626742" r="2"></circle>
    <circle cx="927.2186183313432" cy="556.1938970560071" r="2"></circle>
    <circle cx="348.107181867808" cy="578.2569621069086" r="2"></circle>
    <circle cx="799.979786502779" cy="579.6349237480883" r="2"></circle>
    <circle cx="857.4313005973738" cy="605.1890319636273" r="2"></circle>
    <circle cx="719.0323619622236" cy="653.935515564704" r="2"></circle>
    <circle cx="207.45282326804605" cy="44.70194324745735" r="2"></circle>
    <circle cx="153.51634236898326" cy="167.3587440141674" r="2"></circle>
    <circle cx="271.90069234890944" cy="376.6398575576199" r="2"></circle>
    <circle cx="304.15323411016504" cy="332.844727324088" r="2"></circle>
    <circle cx="818.8071755845267" cy="608.9730032333243" r="2"></circle>
    <circle cx="638.6287012473464" cy="665.8310865509789" r="2"></circle>
    <circle cx="260.43661195800576" cy="232.90792518976122" r="2"></circle>
    <circle cx="281.2858669988432" cy="298.3660766991716" r="2"></circle>
    <circle cx="523.2599890851001" cy="668.6011080953014" r="2"></circle>
    <circle cx="901.4849625179313" cy="586.5959113166319" r="2"></circle>
    <circle cx="181.7879330170021" cy="61.26921951742843" r="2"></circle>
    <circle cx="970.0365069230196" cy="477.6203865283138" r="2"></circle>
    <circle cx="995.4788209471982" cy="460.06544174468263" r="2"></circle>
    <circle cx="471.469837213086" cy="612.6696585563803" r="2"></circle>
    <circle cx="280.6060816445599" cy="406.3193859880319" r="2"></circle>
    <circle cx="956.2774672777997" cy="521.3581486948292" r="2"></circle>
    <circle cx="497.94383672564106" cy="690.6010273468033" r="2"></circle>
    <circle cx="344.05537916869054" cy="501.30302886064175" r="2"></circle>
    <circle cx="455.68282594286944" cy="679.7825825384248" r="2"></circle>
    <circle cx="233.30426795003302" cy="248.84868366950224" r="2"></circle>
    <circle cx="250.78314737549215" cy="304.5268443972139" r="2"></circle>
    <circle cx="180.96377415870688" cy="273.4043455734295" r="2"></circle>
    <circle cx="442.5283099812085" cy="594.2834678526132" r="2"></circle>
    <circle cx="332.1212333955895" cy="531.279257127402" r="2"></circle>
    <circle cx="210.21799557211392" cy="311.5893107423877" r="2"></circle>
    <circle cx="165.6003825537396" cy="12.048470037726217" r="2"></circle>
    <circle cx="986.4691374590742" cy="514.4293983590696" r="2"></circle>
    <circle cx="864.5523295348886" cy="571.0238533200345" r="2"></circle>
    <circle cx="615.1126128250147" cy="592.0354131418378" r="2"></circle>
    <circle cx="965.4269564265172" cy="577.2841933217662" r="2"></circle>
    <circle cx="258.8412279621628" cy="272.5367517974777" r="2"></circle>
    <circle cx="575.8063330228463" cy="740.2608466960531" r="2"></circle>
    <circle cx="362.59676160861306" cy="541.8611149398267" r="2"></circle>
    <circle cx="172.82952231751864" cy="220.21488681737054" r="2"></circle>
    <circle cx="422.2902004030021" cy="524.7793313532599" r="2"></circle>
    <circle cx="226.1955995190059" cy="428.65850324241467" r="2"></circle>
    <circle cx="139.22401989987276" cy="27.123362013661016" r="2"></circle>
    <circle cx="882.1317273938357" cy="626.5559902763957" r="2"></circle>
    <circle cx="740.3421074615471" cy="682.5794391203431" r="2"></circle>
    <circle cx="233.3952768745727" cy="333.64272238387093" r="2"></circle>
    <circle cx="217.71512750651868" cy="394.6738043908347" r="2"></circle>
    <circle cx="158.40474509456618" cy="294.8753917017383" r="2"></circle>
    <circle cx="386.71177201775976" cy="602.0339655642312" r="2"></circle>
    <circle cx="428.85654236000585" cy="708.8509259830527" r="2"></circle>
    <circle cx="184.68729396151662" cy="367.80561253910946" r="2"></circle>
    <circle cx="276.27529998420925" cy="459.9598514289884" r="2"></circle>
    <circle cx="611.5889244346496" cy="685.6150320622719" r="2"></circle>
    <circle cx="843.1491849427636" cy="637.3678762321499" r="2"></circle>
    <circle cx="991.7566819573003" cy="548.6866809730913" r="2"></circle>
    <circle cx="150.00707691960744" cy="259.06188775710166" r="2"></circle>
    <circle cx="182.62470197123181" cy="336.40499014999784" r="2"></circle>
    <circle cx="181.04891611330615" cy="152.6740854963645" r="2"></circle>
    <circle cx="193.01147421909113" cy="441.6918633732182" r="2"></circle>
    <circle cx="365.0820378003478" cy="666.0754588233831" r="2"></circle>
    <circle cx="177.4092997208962" cy="186.18733195958075" r="2"></circle>
    <circle cx="462.87970018131546" cy="720.1310863665701" r="2"></circle>
    <circle cx="161.19279426540942" cy="91.01803092672456" r="2"></circle>
    <circle cx="293.912492462723" cy="434.4109159763914" r="2"></circle>
    <circle cx="123.35489887949223" cy="278.110919066996" r="2"></circle>
    <circle cx="318.8046311209332" cy="483.5626344113362" r="2"></circle>
    <circle cx="410.5121554953091" cy="670.6990291119791" r="2"></circle>
    <circle cx="498.4753993567111" cy="720.6265849195863" r="2"></circle>
    <circle cx="528.3926749567439" cy="725.5448211479719" r="2"></circle>
    <circle cx="520.6636831446174" cy="624.2232950887555" r="2"></circle>
    <circle cx="241.6723801642717" cy="369.77057768860556" r="2"></circle>
    <circle cx="143.05002144748386" cy="361.38387060868274" r="2"></circle>
    <circle cx="119.48409929316065" cy="216.0393806101644" r="2"></circle>
    <circle cx="433.98346398021204" cy="624.5248062994079" r="2"></circle>
    <circle cx="800.3834359708447" cy="639.6012004856102" r="2"></circle>
    <circle cx="925.3740992285877" cy="606.2469466039506" r="2"></circle>
    <circle cx="297.25395820954054" cy="522.2627023021687" r="2"></circle>
    <circle cx="261.25592793307175" cy="499.2844860064109" r="2"></circle>
    <circle cx="544.4865846794706" cy="762.7643903117882" r="2"></circle>
    <circle cx="244.91274618062891" cy="468.8542821722291" r="2"></circle>
    <circle cx="484.2478113748947" cy="764.0700894951883" r="2"></circle>
    <circle cx="143.73004286752519" cy="391.7564573201467" r="2"></circle>
    <circle cx="662.6244375519477" cy="691.2311457365557" r="2"></circle>
    <circle cx="403.62952235203346" cy="729.8418237581566" r="2"></circle>
    <circle cx="822.1174014572787" cy="668.4811191810037" r="2"></circle>
    <circle cx="624.0011593792239" cy="735.637159765095" r="2"></circle>
    <circle cx="921.483462925593" cy="642.1356586656688" r="2"></circle>
    <circle cx="975.283192660552" cy="618.0569334026775" r="2"></circle>
    <circle cx="212.74260032087554" cy="356.826713838792" r="2"></circle>
    <circle cx="152.46071885294043" cy="325.1549349256105" r="2"></circle>
    <circle cx="312.1702282022956" cy="567.5476955995814" r="2"></circle>
    <circle cx="769.3528412566139" cy="660.2173285324486" r="2"></circle>
    <circle cx="994.006911020332" cy="594.2613512921173" r="2"></circle>
    <circle cx="100.9093927688761" cy="253.00800228336135" r="2"></circle>
    <circle cx="454.73399965479257" cy="753.2261709086474" r="2"></circle>
    <circle cx="776.7032462850393" cy="700.7273143496468" r="2"></circle>
    <circle cx="339.66150127555045" cy="618.2780331475957" r="2"></circle>
    <circle cx="366.1499959923789" cy="632.8645644906928" r="2"></circle>
    <circle cx="945.1353209332061" cy="690.9935550398989" r="2"></circle>
    <circle cx="295.6952474088997" cy="722.8831476250942" r="2"></circle>
    <circle cx="247.78925960163647" cy="539.699636093668" r="2"></circle>
    <circle cx="958.5277523057656" cy="656.085058637795" r="2"></circle>
    <circle cx="844.0455063087571" cy="718.020237162535" r="2"></circle>
    <circle cx="891.7449923498325" cy="712.4492361046324" r="2"></circle>
    <circle cx="127.01214982698565" cy="127.14372115258278" r="2"></circle>
    <circle cx="699.0631569543648" cy="700.6119102086383" r="2"></circle>
    <circle cx="148.57963631786103" cy="454.60168628321964" r="2"></circle>
    <circle cx="250.54567847780618" cy="404.988943191692" r="2"></circle>
    <circle cx="865.7466085181795" cy="666.1510197638945" r="2"></circle>
    <circle cx="120.43288053725254" cy="180.97357174806177" r="2"></circle>
    <circle cx="745.8809962369821" cy="635.8008349245454" r="2"></circle>
    <circle cx="146.54242959454723" cy="200.78362817183654" r="2"></circle>
    <circle cx="82.51724054753313" cy="213.66344597177897" r="2"></circle>
    <circle cx="745.475336700936" cy="714.6424907597942" r="2"></circle>
    <circle cx="156.90253718524312" cy="419.2746065483421" r="2"></circle>
    <circle cx="797.6258877735288" cy="743.586464968427" r="2"></circle>
    <circle cx="516.0146934501415" cy="773.75734912809" r="2"></circle>
    <circle cx="124.27858785621163" cy="311.47978869938083" r="2"></circle>
    <circle cx="186.92935134187888" cy="403.0655418035268" r="2"></circle>
    <circle cx="158.38732953446504" cy="125.14729397613122" r="2"></circle>
    <circle cx="81.58829887100066" cy="347.4236263286398" r="2"></circle>
    <circle cx="207.18489161160977" cy="485.54328620919625" r="2"></circle>
    <circle cx="255.2211309642852" cy="436.8891466779431" r="2"></circle>
    <circle cx="378.15374776093176" cy="745.9048029230015" r="2"></circle>
    <circle cx="687.39999475969" cy="672.1479844730027" r="2"></circle>
    <circle cx="574.9662516098876" cy="680.8029120808218" r="2"></circle>
    <circle cx="65.37682753380733" cy="178.52131778922765" r="2"></circle>
    <circle cx="95.72812064804049" cy="418.50756987932675" r="2"></circle>
    <circle cx="70.73583847716122" cy="244.51487838288662" r="2"></circle>
    <circle cx="298.2443949399129" cy="605.1481749713256" r="2"></circle>
    <circle cx="895.4678951709494" cy="661.0534243578212" r="2"></circle>
    <circle cx="416.4127551683889" cy="782.3159991065315" r="2"></circle>
    <circle cx="915.1946253277506" cy="692.9213785543583" r="2"></circle>
    <circle cx="99.72972788855424" cy="47.33771998188926" r="2"></circle>
    <circle cx="116.84391042786083" cy="4.0678472514587005" r="2"></circle>
    <circle cx="225.92329515866413" cy="515.8018319818412" r="2"></circle>
    <circle cx="115.15981486702967" cy="341.8197961535176" r="2"></circle>
    <circle cx="877.7453784024201" cy="746.0993214035493" r="2"></circle>
    <circle cx="809.9944513471794" cy="698.4720321485268" r="2"></circle>
    <circle cx="326.69975548768673" cy="663.6081692670225" r="2"></circle>
    <circle cx="114.20117103338806" cy="381.4623886011644" r="2"></circle>
    <circle cx="374.6608296059724" cy="783.3032697840281" r="2"></circle>
    <circle cx="71.32222401152399" cy="17.103632065179774" r="2"></circle>
    <circle cx="666.0324793882154" cy="737.0632128852519" r="2"></circle>
    <circle cx="999.9197965505" cy="680.8404365167639" r="2"></circle>
    <circle cx="348.32927724828403" cy="751.2978120840475" r="2"></circle>
    <circle cx="139.94057330323722" cy="63.73717828215889" r="2"></circle>
    <circle cx="73.83411677012857" cy="286.78141950408815" r="2"></circle>
    <circle cx="63.80814234296275" cy="383.08565085896635" r="2"></circle>
    <circle cx="585.8319856954063" cy="710.3858427468394" r="2"></circle>
    <circle cx="767.001549964852" cy="753.9552874578411" r="2"></circle>
    <circle cx="828.6133214987603" cy="749.2358445114346" r="2"></circle>
    <circle cx="811.0567508822965" cy="786.1054083241723" r="2"></circle>
    <circle cx="970.3886104659986" cy="711.8722435916776" r="2"></circle>
    <circle cx="285.2221792296069" cy="638.7923750784613" r="2"></circle>
    <circle cx="273.57630198765787" cy="571.2304746919809" r="2"></circle>
    <circle cx="110.11487139963168" cy="84.5923439880048" r="2"></circle>
    <circle cx="699.3437828928855" cy="732.0091460729033" r="2"></circle>
    <circle cx="317.033235251349" cy="753.7555240628647" r="2"></circle>
    <circle cx="403.0576784859971" cy="832.6717812553644" r="2"></circle>
    <circle cx="686.5182600190042" cy="765.3621282029619" r="2"></circle>
    <circle cx="287.2192403107995" cy="682.2964627217168" r="2"></circle>
    <circle cx="123.41958092122738" cy="435.5245401875534" r="2"></circle>
    <circle cx="887.7873957583108" cy="786.3111178793839" r="2"></circle>
    <circle cx="999.4744027085311" cy="721.0694190975021" r="2"></circle>
    <circle cx="90.30828193582396" cy="317.8642426527319" r="2"></circle>
    <circle cx="938.3830915209301" cy="744.6024934911609" r="2"></circle>
    <circle cx="636.0309192509909" cy="705.2128851251325" r="2"></circle>
    <circle cx="643.7204211759214" cy="761.6642473760728" r="2"></circle>
    <circle cx="451.21346204462753" cy="796.4161425838736" r="2"></circle>
    <circle cx="64.66726703807146" cy="413.2724739228726" r="2"></circle>
    <circle cx="82.27076932119249" cy="72.7732510679314" r="2"></circle>
    <circle cx="509.65567081223253" cy="817.7031133919381" r="2"></circle>
    <circle cx="237.34555392165194" cy="657.285152479638" r="2"></circle>
    <circle cx="725.4977659917994" cy="749.5581324090092" r="2"></circle>
    <circle cx="259.9072110466859" cy="697.5535386139826" r="2"></circle>
    <circle cx="613.938222150093" cy="791.3832496890439" r="2"></circle>
    <circle cx="258.0831390676897" cy="730.4933169972711" r="2"></circle>
    <circle cx="729.5765282994264" cy="803.4809136589938" r="2"></circle>
    <circle cx="487.08207767148764" cy="796.8529413750806" r="2"></circle>
    <circle cx="36.106448531420796" cy="310.1269020339835" r="2"></circle>
    <circle cx="580.0037322753196" cy="782.4357985884371" r="2"></circle>
    <circle cx="849.7795031239879" cy="770.5716629034378" r="2"></circle>
    <circle cx="423.3527274713393" cy="752.525760729125" r="2"></circle>
    <circle cx="178.04600010628147" cy="470.98458579634917" r="2"></circle>
    <circle cx="996.475480292422" cy="650.6206239432319" r="2"></circle>
    <circle cx="342.36573572904024" cy="691.2464931823703" r="2"></circle>
    <circle cx="44.79184775556847" cy="272.8504970769582" r="2"></circle>
    <circle cx="666.1123252311404" cy="789.1880246586896" r="2"></circle>
    <circle cx="461.6836624910975" cy="826.7499980622244" r="2"></circle>
    <circle cx="971.5259139323801" cy="744.272630314998" r="2"></circle>
    <circle cx="206.42582266717798" cy="750.9767306627675" r="2"></circle>
    <circle cx="689.2481252711568" cy="819.7755398746889" r="2"></circle>
    <circle cx="23.451170915564454" cy="381.16640989210896" r="2"></circle>
    <circle cx="74.70083671536581" cy="458.0379498351111" r="2"></circle>
    <circle cx="554.6980919492913" cy="830.4842026002805" r="2"></circle>
    <circle cx="542.0416654361184" cy="797.3422226357206" r="2"></circle>
    <circle cx="837.9526564043563" cy="808.3964043777014" r="2"></circle>
    <circle cx="777.9924141973812" cy="799.7386409350186" r="2"></circle>
    <circle cx="212.15131001036687" cy="564.7584399512971" r="2"></circle>
    <circle cx="433.2948591417121" cy="847.4848392728319" r="2"></circle>
    <circle cx="906.4007732992425" cy="761.5221901275195" r="2"></circle>
    <circle cx="22.641363377840918" cy="349.208387366908" r="2"></circle>
    <circle cx="265.42764261184124" cy="787.5184499234819" r="2"></circle>
    <circle cx="6.845032605790404" cy="428.6740342519485" r="2"></circle>
    <circle cx="922.2881723175922" cy="789.4811804104802" r="2"></circle>
    <circle cx="30.004777185199757" cy="482.36984246315706" r="2"></circle>
    <circle cx="999.1379194120003" cy="759.1195590749148" r="2"></circle>
    <circle cx="751.0348269784007" cy="782.3174920913997" r="2"></circle>
    <circle cx="41.3592456587789" cy="435.4956963800065" r="2"></circle>
    <circle cx="200.72409576711786" cy="535.7735478328956" r="2"></circle>
    <circle cx="243.7327897611627" cy="842.9490207483924" r="2"></circle>
    <circle cx="266.81404533330726" cy="603.5467734099929" r="2"></circle>
    <circle cx="230.6488010891316" cy="608.5373946384917" r="2"></circle>
    <circle cx="993.3341787383486" cy="816.0673619340453" r="2"></circle>
    <circle cx="350.3821753364325" cy="815.5728498132644" r="2"></circle>
    <circle cx="52.15909636372735" cy="219.20197699470123" r="2"></circle>
    <circle cx="658.0947245464234" cy="823.5067448251839" r="2"></circle>
    <circle cx="339.5779436221158" cy="781.6468911241155" r="2"></circle>
    <circle cx="44.45440830810478" cy="67.46369362516845" r="2"></circle>
    <circle cx="627.1234334387808" cy="834.2226269239447" r="2"></circle>
    <circle cx="120.6579547247062" cy="492.96579376872825" r="2"></circle>
    <circle cx="224.60613206890469" cy="693.436983465276" r="2"></circle>
    <circle cx="287.13340995550027" cy="759.1892962147192" r="2"></circle>
    <circle cx="96.56339839379726" cy="158.8016803315306" r="2"></circle>
    <circle cx="792.5538837499334" cy="828.8355502481808" r="2"></circle>
    <circle cx="167.68643190588267" cy="559.5516526145758" r="2"></circle>
    <circle cx="33.279506017208774" cy="184.11769337234193" r="2"></circle>
    <circle cx="600.0599070139888" cy="758.1283670551014" r="2"></circle>
    <circle cx="178.84044035526256" cy="634.2291197893702" r="2"></circle>
    <circle cx="957.2024810061909" cy="781.8883754710282" r="2"></circle>
    <circle cx="50.79147096733528" cy="506.965956303237" r="2"></circle>
    <circle cx="14.298482788877266" cy="285.8509159942262" r="2"></circle>
    <circle cx="165.66750644922982" cy="502.5822135305706" r="2"></circle>
    <circle cx="5.862465310710846" cy="517.1117458993864" r="2"></circle>
    <circle cx="65.29430010358809" cy="144.12886761510615" r="2"></circle>
    <circle cx="105.37042251457888" cy="466.0535557756528" r="2"></circle>
    <circle cx="319.7017178446831" cy="837.7851928445194" r="2"></circle>
    <circle cx="319.7955122497692" cy="805.4964755133266" r="2"></circle>
    <circle cx="229.6432947957631" cy="773.5760415379912" r="2"></circle>
    <circle cx="224.30387257990657" cy="725.4791283616748" r="2"></circle>
    <circle cx="90.86485254145889" cy="535.0036192467492" r="2"></circle>
    <circle cx="2.037665256770758" cy="323.56899956206814" r="2"></circle>
    <circle cx="14.075747034233927" cy="12.889146167364178" r="2"></circle>
    <circle cx="183.77043032124814" cy="795.4807175698094" r="2"></circle>
    <circle cx="185.0107054317308" cy="721.3691166407914" r="2"></circle>
    <circle cx="16.802069421211048" cy="563.4039882282295" r="2"></circle>
    <circle cx="367.48409909139997" cy="841.9319520307833" r="2"></circle>
    <circle cx="26.79960653342222" cy="131.22871040889947" r="2"></circle>
    <circle cx="239.65079946281256" cy="578.8744307119784" r="2"></circle>
    <circle cx="9.266032711115155" cy="71.40747456981353" r="2"></circle>
    <circle cx="429.35589178788615" cy="817.5495613045277" r="2"></circle>
    <circle cx="286.8243008195856" cy="841.2404584523399" r="2"></circle>
    <circle cx="756.7408392557512" cy="829.5601737660079" r="2"></circle>
    <circle cx="432.9650804678955" cy="902.1922312055841" r="2"></circle>
    <circle cx="941.7418252511079" cy="838.9346153235209" r="2"></circle>
    <circle cx="184.73803814050984" cy="664.0299942147686" r="2"></circle>
    <circle cx="721.3911514109512" cy="834.1671609467824" r="2"></circle>
    <circle cx="16.630936287121607" cy="252.8906656711358" r="2"></circle>
    <circle cx="19.741785884800002" cy="222.7707502624931" r="2"></circle>
    <circle cx="78.31947568167047" cy="488.49290285056355" r="2"></circle>
    <circle cx="253.7787060133623" cy="632.1651543464272" r="2"></circle>
    <circle cx="199.82188903744606" cy="601.5027484497039" r="2"></circle>
    <circle cx="474.82928449342796" cy="880.3221805592053" r="2"></circle>
    <circle cx="123.70799356647169" cy="541.0257932886402" r="2"></circle>
    <circle cx="403.27385164922197" cy="865.114895388341" r="2"></circle>
    <circle cx="190.21201612736607" cy="830.4843810818741" r="2"></circle>
    <circle cx="56.37385404306663" cy="101.36594343913012" r="2"></circle>
    <circle cx="874.682635268348" cy="818.3492028839129" r="2"></circle>
    <circle cx="699.5889973205566" cy="856.61953885044" r="2"></circle>
    <circle cx="914.7189939121873" cy="869.8167392810485" r="2"></circle>
    <circle cx="0.26159682975212206" cy="169.8698970867826" r="2"></circle>
    <circle cx="505.95799373381556" cy="865.8831431846311" r="2"></circle>
    <circle cx="588.6857308223069" cy="822.3405650930539" r="2"></circle>
    <circle cx="736.8164073342206" cy="879.8612695083841" r="2"></circle>
    <circle cx="365.82296224876796" cy="895.0129074477127" r="2"></circle>
    <circle cx="1.0535740063776728" cy="460.46059267596064" r="2"></circle>
    <circle cx="329.91516090744926" cy="880.7269012360493" r="2"></circle>
    <circle cx="51.926078128068504" cy="342.338690803183" r="2"></circle>
    <circle cx="959.0018317069715" cy="898.0548594183402" r="2"></circle>
    <circle cx="151.74506249065024" cy="529.4515974442479" r="2"></circle>
    <circle cx="209.3508188285216" cy="634.1475113319481" r="2"></circle>
    <circle cx="263.41339603285473" cy="817.8326875990773" r="2"></circle>
    <circle cx="907.7954216743043" cy="819.6990354103125" r="2"></circle>
    <circle cx="97.19344663434876" cy="118.27918606818116" r="2"></circle>
    <circle cx="1.970393619456118" cy="109.85596845794126" r="2"></circle>
    <circle cx="883.3505737911113" cy="865.1165506166365" r="2"></circle>
    <circle cx="147.09054777390753" cy="620.1696303654625" r="2"></circle>
    <circle cx="124.66609794595496" cy="587.7457695866551" r="2"></circle>
    <circle cx="830.0751117414014" cy="838.8664846952008" r="2"></circle>
    <circle cx="161.12949336457734" cy="744.5004763793778" r="2"></circle>
    <circle cx="55.773966235576935" cy="540.8149458566016" r="2"></circle>
    <circle cx="664.9666721759181" cy="905.1412573063891" r="2"></circle>
    <circle cx="993.3492581193108" cy="854.8976791420197" r="2"></circle>
    <circle cx="858.220666279049" cy="886.5877106266823" r="2"></circle>
    <circle cx="620.9980268698995" cy="867.4126799473989" r="2"></circle>
    <circle cx="917.5098699584664" cy="927.6046841002064" r="2"></circle>
    <circle cx="533.7126443434707" cy="852.8425896871156" r="2"></circle>
    <circle cx="283.14317694852207" cy="887.4146780969456" r="2"></circle>
    <circle cx="222.23380918882108" cy="812.7333063556642" r="2"></circle>
    <circle cx="785.9193164456522" cy="858.0971673673378" r="2"></circle>
    <circle cx="254.8910208761073" cy="871.5786104047999" r="2"></circle>
    <circle cx="199.04602958093014" cy="868.8712458896699" r="2"></circle>
    <circle cx="46.53383318228351" cy="35.27408746679528" r="2"></circle>
    <circle cx="585.6689587929752" cy="869.6301354192708" r="2"></circle>
    <circle cx="996.1649183282299" cy="888.4292315352791" r="2"></circle>
    <circle cx="94.17005743636582" cy="580.5969678436505" r="2"></circle>
    <circle cx="979.6815226268579" cy="931.3674717694905" r="2"></circle>
    <circle cx="151.9141694820015" cy="695.8024082064034" r="2"></circle>
    <circle cx="0.11830782681958141" cy="199.97178732280923" r="2"></circle>
    <circle cx="767.777539980321" cy="884.0079793632051" r="2"></circle>
    <circle cx="960.4839853694605" cy="862.8506850484403" r="2"></circle>
    <circle cx="41.0054976822865" cy="595.6963261005534" r="2"></circle>
    <circle cx="397.43780226448257" cy="925.8331052742425" r="2"></circle>
    <circle cx="61.88556178762796" cy="571.814148388815" r="2"></circle>
    <circle cx="821.1557226454823" cy="869.2471093352875" r="2"></circle>
    <circle cx="156.0503509957489" cy="587.7127072944497" r="2"></circle>
    <circle cx="898.6551549064468" cy="898.8795542237084" r="2"></circle>
    <circle cx="511.9094727177092" cy="919.5678635653414" r="2"></circle>
    <circle cx="869.6152135846877" cy="955.4497888753355" r="2"></circle>
    <circle cx="449.5875906160298" cy="952.1490036152469" r="2"></circle>
    <circle cx="960.578206546245" cy="815.518978213029" r="2"></circle>
    <circle cx="134.09635233541155" cy="731.3282893336254" r="2"></circle>
    <circle cx="149.40645663029497" cy="786.9486331027165" r="2"></circle>
    <circle cx="146.13637149104758" cy="652.7564365215414" r="2"></circle>
    <circle cx="798.8889753655524" cy="889.4820279601886" r="2"></circle>
    <circle cx="43.88106868648167" cy="4.205520167558237" r="2"></circle>
    <circle cx="114.00338698741609" cy="824.0574559053603" r="2"></circle>
    <circle cx="402.8134827865028" cy="960.9959221763927" r="2"></circle>
    <circle cx="374.66775444858325" cy="947.9797085145244" r="2"></circle>
    <circle cx="339.7569834415167" cy="941.5821611966319" r="2"></circle>
    <circle cx="156.28784049491296" cy="843.8236976503389" r="2"></circle>
    <circle cx="466.0005511301838" cy="918.2823604569422" r="2"></circle>
    <circle cx="840.122820329281" cy="926.7519157319648" r="2"></circle>
    <circle cx="112.7165566763986" cy="770.722964259097" r="2"></circle>
    <circle cx="76.69324590641088" cy="610.3859533837434" r="2"></circle>
    <circle cx="261.30566467330266" cy="911.7453408602919" r="2"></circle>
    <circle cx="695.111086688115" cy="911.1185497579356" r="2"></circle>
    <circle cx="932.96706145373" cy="984.0233661042583" r="2"></circle>
    <circle cx="127.04619758532496" cy="678.0292463315603" r="2"></circle>
    <circle cx="870.9074891455638" cy="922.0475956931207" r="2"></circle>
    <circle cx="806.8474739282331" cy="973.8434573025921" r="2"></circle>
    <circle cx="319.65055985336886" cy="918.3375849500887" r="2"></circle>
    <circle cx="740.3920666491966" cy="931.4240434244621" r="2"></circle>
    <circle cx="906.8698560890667" cy="956.1609333474405" r="2"></circle>
    <circle cx="69.5012664855831" cy="783.9432191868956" r="2"></circle>
    <circle cx="114.76181765259993" cy="642.0235761362111" r="2"></circle>
    <circle cx="139.76632580068792" cy="887.4457165937914" r="2"></circle>
    <circle cx="82.95738940157621" cy="646.6344857149039" r="2"></circle>
    <circle cx="889.2037771385162" cy="997.5217143730043" r="2"></circle>
    <circle cx="95.96100316922869" cy="678.8955425577276" r="2"></circle>
    <circle cx="552.818045711237" cy="882.7375377481184" r="2"></circle>
    <circle cx="811.2317537063885" cy="918.6343683596245" r="2"></circle>
    <circle cx="491.5664402539794" cy="955.9836065041087" r="2"></circle>
    <circle cx="560.7117012409632" cy="948.278744905859" r="2"></circle>
    <circle cx="678.8428109720343" cy="878.4546114397812" r="2"></circle>
    <circle cx="55.89167175568325" cy="837.4057736851402" r="2"></circle>
    <circle cx="9.250318765503309" cy="600.1232209488866" r="2"></circle>
    <circle cx="399.6542199906363" cy="895.4839939356575" r="2"></circle>
    <circle cx="838.5859918958625" cy="970.0585232207206" r="2"></circle>
    <circle cx="292.9047516855015" cy="971.9647933986711" r="2"></circle>
    <circle cx="12.798604137284364" cy="643.3489790249615" r="2"></circle>
    <circle cx="986.8819641386228" cy="786.5091865156621" r="2"></circle>
    <circle cx="541.4260291382317" cy="911.5611470988512" r="2"></circle>
    <circle cx="655.436081309302" cy="858.1374307421661" r="2"></circle>
    <circle cx="378.7818572542489" cy="980.8887240151406" r="2"></circle>
    <circle cx="595.8867517916649" cy="983.4755836432939" r="2"></circle>
    <circle cx="475.7856193687242" cy="982.0547234279572" r="2"></circle>
    <circle cx="625.0060788391683" cy="960.2187498602018" r="2"></circle>
    <circle cx="51.28293045224201" cy="630.4789211763906" r="2"></circle>
    <circle cx="769.4835377366028" cy="914.4305489327852" r="2"></circle>
    <circle cx="488.9009006927591" cy="840.3009038572969" r="2"></circle>
    <circle cx="285.566899241737" cy="932.1064780148964" r="2"></circle>
    <circle cx="794.5283954262994" cy="944.4482545906874" r="2"></circle>
    <circle cx="589.7227707820026" cy="904.8909913526637" r="2"></circle>
    <circle cx="327.2433998745838" cy="970.7549884927439" r="2"></circle>
    <circle cx="857.6777461871237" cy="996.5409841150218" r="2"></circle>
    <circle cx="415.45634778224326" cy="998.9646091427672" r="2"></circle>
    <circle cx="108.67987762216903" cy="864.4724158803274" r="2"></circle>
    <circle cx="58.47136211511945" cy="687.2069338650304" r="2"></circle>
    <circle cx="66.0394361739938" cy="879.9929978449379" r="2"></circle>
    <circle cx="532.1725970965425" cy="997.6234535911128" r="2"></circle>
    <circle cx="623.1104070362927" cy="901.1451171515556" r="2"></circle>
    <circle cx="346.6072495409628" cy="998.201616413769" r="2"></circle>
    <circle cx="172.7493832245811" cy="889.3884869498505" r="2"></circle>
    <circle cx="954.9844035634093" cy="953.7235403385076" r="2"></circle>
    <circle cx="233.18862279087753" cy="927.4816340768823" r="2"></circle>
    <circle cx="97.32242999035694" cy="798.6143922515969" r="2"></circle>
    <circle cx="88.45423132042342" cy="712.9647289830718" r="2"></circle>
    <circle cx="668.8072364436357" cy="963.7582399189725" r="2"></circle>
    <circle cx="527.1709477827193" cy="967.2893116145051" r="2"></circle>
    <circle cx="170.65269375785033" cy="930.7595400288798" r="2"></circle>
    <circle cx="209.33153779757862" cy="900.6826162920466" r="2"></circle>
    <circle cx="26.70526407006281" cy="672.7626442662629" r="2"></circle>
    <circle cx="997.5980194255691" cy="986.0597477805065" r="2"></circle>
    <circle cx="23.314126488642337" cy="800.4972007007132" r="2"></circle>
    <circle cx="648.4363349337531" cy="940.8875691428744" r="2"></circle>
    <circle cx="446.61735109381203" cy="993.2909025493091" r="2"></circle>
    <circle cx="625.8256821537359" cy="990.4537870791327" r="2"></circle>
    <circle cx="589.2278976529399" cy="938.6111112875653" r="2"></circle>
    <circle cx="80.26268178739417" cy="746.7637490298064" r="2"></circle>
    <circle cx="967.9120631164376" cy="992.1124690166068" r="2"></circle>
    <circle cx="75.24249790641886" cy="925.6393583793007" r="2"></circle>
    <circle cx="86.08997791921124" cy="840.3242626221969" r="2"></circle>
    <circle cx="999.8003690172798" cy="953.9593546757194" r="2"></circle>
    <circle cx="564.611187131833" cy="988.3237411375072" r="2"></circle>
    <circle cx="30.75291515921326" cy="768.5772878791794" r="2"></circle>
    <circle cx="120.60538989741883" cy="917.5501231692907" r="2"></circle>
    <circle cx="42.70996748669785" cy="733.8574302911544" r="2"></circle>
    <circle cx="96.57505939465179" cy="895.4958663310999" r="2"></circle>
    <circle cx="204.42020753501924" cy="950.8306965791893" r="2"></circle>
    <circle cx="173.71773861696116" cy="973.5664068790078" r="2"></circle>
    <circle cx="13.56611366581707" cy="722.137161966479" r="2"></circle>
    <circle cx="702.2233498498722" cy="952.0419695324083" r="2"></circle>
    <circle cx="655.5711333212793" cy="994.4158836403924" r="2"></circle>
    <circle cx="124.99978692629757" cy="958.1823744289972" r="2"></circle>
    <circle cx="826.5225080940742" cy="998.4873026339395" r="2"></circle>
    <circle cx="771.7015379309123" cy="984.074515412854" r="2"></circle>
    <circle cx="0.27633038720691516" cy="693.5260566572492" r="2"></circle>
    <circle cx="3.7759691252964895" cy="753.8769023141591" r="2"></circle>
    <circle cx="228.17872037225243" cy="992.3242254525182" r="2"></circle>
    <circle cx="426.9802546481584" cy="931.7314934119227" r="2"></circle>
    <circle cx="71.41593696881975" cy="958.7139886578138" r="2"></circle>
    <circle cx="736.4410638952988" cy="982.6397403330104" r="2"></circle>
    <circle cx="122.22943555235796" cy="994.7509688052243" r="2"></circle>
    <circle cx="703.4201579649437" cy="990.086659535152" r="2"></circle>
    <circle cx="276.34668854104393" cy="997.0662421758481" r="2"></circle>
    <circle cx="90.1689380370876" cy="999.1470510880317" r="2"></circle>
    <circle cx="252.01171646089665" cy="964.5044211640441" r="2"></circle>
    <circle cx="758.163841526121" cy="957.2817071915185" r="2"></circle>
    <circle cx="195.53595192153176" cy="998.4343098089836" r="2"></circle>
    <circle cx="9.74772373125819" cy="858.9885283326513" r="2"></circle>
    <circle cx="502.11446659619105" cy="998.1679128229129" r="2"></circle>
    <circle cx="860.6495337966918" cy="845.2376953114477" r="2"></circle>
    <circle cx="1.7824196729800406" cy="40.59367713185616" r="2"></circle>
    <circle cx="107.77762790934338" cy="612.6199238995173" r="2"></circle>
    <circle cx="701.1232237862547" cy="791.8410296549911" r="2"></circle>
    <circle cx="5.398636872041447" cy="827.104399585966" r="2"></circle>
    <circle cx="40.46728219268738" cy="863.5131298700795" r="2"></circle>
    <circle cx="37.89450058522232" cy="920.5170381363317" r="2"></circle>
    <circle cx="928.7249635344476" cy="898.8300913569219" r="2"></circle>
    <circle cx="4.361595197971333" cy="904.7039458106271" r="2"></circle>
    <circle cx="153.27255573659923" cy="999.1501444920713" r="2"></circle>
    <circle cx="309.95286639307096" cy="998.007089664495" r="2"></circle>
    <circle cx="48.273255849581574" cy="998.1440711603657" r="2"></circle>
    <circle cx="40.866193495943854" cy="966.3373190459861" r="2"></circle>
    <circle cx="10.729295027462861" cy="952.3124560540391" r="2"></circle>
    <circle cx="6.860045344260932" cy="993.5896444559506" r="2"></circle>
  </g>
</svg>
